# xmcd
#
# Track frame offsets: 
#        150
#        102315
#        279750
#
# Disc length: 4334 seconds
#
# Revision: 0
# Processed by: cddbd v1.5.2PL0 Copyright (c) Steve Scherf et al.
# Submitted via: ExactAudioCopyFreeDBPlugin 1.0
#
DISCID=1d10ec03
DTITLE=區均祥、馮翠瑜、羅秋鴻 - 歌來哽咽聽來癡 ─ 區均祥地水南音集
DYEAR=2009
DGENRE=南音
TTITLE0=區均祥、羅秋鴻 - 王大儒
TTITLE1=區均祥、馮翠瑜 - 霸王別虞姬
TTITLE2=余少華 - 區均祥南音跋
EXTD=
EXTT0=
EXTT1=
EXTT2=
PLAYORDER=
